# xmcd CD database file
#
# Track frame offsets:
#	150
#	7690
#	17825
#	35792
#	53542
#	66880
#	81760
#	94412
#	108915
#	126477
#	146360
#	162572
#
# Disc length: 2393 seconds
#
# Revision: 0
# Processed by: cddbd v1.5.2PL0 Copyright (c) Steve Scherf et al.
# Submitted via: CDex 1.70beta2
#
DISCID=9b09570c
DTITLE=Combustible Edison - I, Swinger
DYEAR=1996
DGENRE=Jazz
TTITLE0=Cadillac
TTITLE1=The Millionaire's Holiday
TTITLE2=Breakfast At Denny's
TTITLE3=Intermission
TTITLE4=Cry Me A River
TTITLE5=Impact!
TTITLE6=Guadaloupe
TTITLE7=Carnival Of Souls
TTITLE8=The Veldt
TTITLE9=Surabaya Johnny
TTITLE10=Spy Vs. Spy
TTITLE11=Theme From "The Tiki Wonder Hour"
EXTD=YEAR: 1996
EXTT0=
EXTT1=
EXTT2=
EXTT3=
EXTT4=
EXTT5=
EXTT6=
EXTT7=
EXTT8=
EXTT9=
EXTT10=
EXTT11=
PLAYORDER=
